<svg xmlns="http://www.w3.org/2000/svg" height="20px" viewBox="0 -960 960 960" width="20px" fill="#e9c349"><path d="M216-144q-29.7 0-50.85-21.15Q144-186.3 144-216v-408q0-80 56-136t136-56h288q80 0 136 56t56 136v408q0 29.7-21.15 50.85Q773.7-144 744-144H216Zm0-72h528v-408q0-49.5-35.25-84.75T624-744H336q-49.5 0-84.75 35.25T216-624v408Zm93-285.21q-21-21.21-21-51T309.21-603q21.21-21 51-21T411-602.79q21 21.21 21 51T410.79-501q-21.21 21-51 21T309-501.21Zm240 0q-21-21.21-21-51T549.21-603q21.21-21 51-21T651-602.79q21 21.21 21 51T650.79-501q-21.21 21-51 21T549-501.21ZM288-216v-72.21Q288-318 309.15-339T360-360h240q29.7 0 50.85 21.15Q672-317.7 672-288v72h-72v-72h-84v72h-72v-72h-84v72h-72Zm-72 0h528-528Z"/></svg>